#Comment line ignore any data following # character 
#Hierarchical Translation and Rotation (.htr) file 
[Header]	
#Header keywords are followed by a single value 
FileType HTR		#Single word string
DataType HTRS		#Translation followed by rotation and scale data
FileVersion 1		#integer
NumSegments 14		#integer
NumFrames 9		#integer
DataFrameRate 30		#integer, data frame rate in this file
EulerRotationOrder ZYX
CalibrationUnits mm
RotationUnits Degrees
GlobalAxisofGravity Y
BoneLengthAxis Y
ScaleFactor 1.00
[SegmentNames&Hierarchy]
#CHILD	PARENT
MASTER GLOBAL
weapon MASTER
barrel_root weapon
middle_left_energyLow_part1 weapon
middle_left_energyLow_part2 weapon
middle_left_root weapon
middle_right_energyLow_part1 weapon
middle_top weapon
barrel1_top_root barrel_root
barrel2_top_root barrel_root
barrel3_top_root barrel_root
barrel1_top_back barrel1_top_root
barrel2_top_back barrel2_top_root
barrel3_top_back barrel3_top_root
[BasePosition]
#SegmentName Tx, Ty, Tz, Rx, Ry, Rz, BoneLength
MASTER 0.000000 0.000000 0.000000 -90.000000 0.000000 0.000000 10.000000 
weapon 0.000000 0.000000 0.000000 0.000000 0.000000 0.000000 10.000000 
barrel_root 0.000000 0.000000 0.000000 0.000000 0.000000 0.000000 10.000000 
middle_left_energyLow_part1 0.000000 0.000000 0.000000 0.000000 0.000000 0.000000 10.000000 
middle_left_energyLow_part2 0.000000 0.000000 0.000000 0.000000 0.000000 0.000000 10.000000 
middle_left_root 0.000000 0.000000 0.000000 0.000000 0.000000 0.000000 10.000000 
middle_right_energyLow_part1 0.000000 0.000000 0.000000 0.000000 0.000000 0.000000 10.000000 
middle_top 0.000000 0.000000 0.000000 0.000000 0.000000 0.000000 10.000000 
barrel1_top_root 0.000000 0.000000 0.000000 0.000000 0.000000 0.000000 10.000000 
barrel2_top_root 0.000000 0.000000 0.000000 0.000000 0.000000 0.000000 10.000000 
barrel3_top_root 0.000000 0.000000 0.000000 0.000000 0.000000 0.000000 10.000000 
barrel1_top_back 0.000000 0.000000 0.000000 0.000000 0.000000 0.000000 10.000000 
barrel2_top_back 0.000000 0.000000 0.000000 0.000000 0.000000 0.000000 10.000000 
barrel3_top_back 0.000000 0.000000 0.000000 0.000000 0.000000 0.000000 10.000000 
#Beginning of Data. Separated by tabs
#Fr	Tx	Ty	Tz	Rx	Ry	Rz	SF
[MASTER]
1 0.000000 0.000000 0.000000 0.000000 -0.000000 0.000000 0.000000
2 0.000000 0.000000 0.000000 0.000000 -0.000000 0.000000 0.000000
3 0.000000 0.000000 0.000000 0.000000 -0.000000 0.000000 0.000000
4 0.000000 0.000000 0.000000 0.000000 -0.000000 0.000000 0.000000
5 0.000000 0.000000 0.000000 0.000000 -0.000000 0.000000 0.000000
6 0.000000 0.000000 0.000000 0.000000 -0.000000 0.000000 0.000000
7 0.000000 0.000000 0.000000 0.000000 -0.000000 0.000000 0.000000
8 0.000000 0.000000 0.000000 0.000000 -0.000000 0.000000 0.000000
9 0.000000 0.000000 0.000000 0.000000 -0.000000 0.000000 0.000000
[weapon]
1 -0.000019 -104.980469 30.104521 0.000000 0.000000 -0.000020 109.211632
2 0.000000 -104.980469 30.104597 0.000000 0.000000 -0.000020 109.211655
3 -0.000019 -104.980469 30.104597 0.000000 0.000000 -0.000020 109.211655
4 0.000000 -104.980621 30.104597 0.000000 0.000000 -0.000020 109.211800
5 -0.000038 -104.980621 30.104597 0.000000 0.000000 -0.000020 109.211800
6 0.000000 -104.980621 30.104521 0.000000 0.000000 -0.000020 109.211777
7 0.000038 -104.980690 30.104521 0.000000 0.000000 -0.000020 109.211845
8 0.000019 -104.980621 30.104597 0.000000 0.000000 -0.000020 109.211800
9 0.000019 -104.980621 30.104597 0.000000 0.000000 -0.000020 109.211800
[barrel_root]
1 -0.000000 259.831787 -55.258617 0.000000 -0.000000 0.000000 265.642761
2 -0.000000 259.831787 -55.258617 0.000000 -0.000000 0.000000 265.642761
3 -0.000000 259.831787 -55.258617 0.000000 -0.000000 0.000000 265.642761
4 -0.000000 259.831787 -55.258617 0.000000 -0.000000 0.000000 265.642761
5 -0.000000 259.831787 -55.258617 0.000000 -0.000000 0.000000 265.642761
6 -0.000000 259.831787 -55.258617 0.000000 -0.000000 0.000000 265.642761
7 -0.000000 259.831787 -55.258617 0.000000 -0.000000 0.000000 265.642761
8 -0.000000 259.831787 -55.258617 0.000000 -0.000000 0.000000 265.642761
9 -0.000000 259.831787 -55.258617 0.000000 -0.000000 0.000000 265.642761
[middle_left_energyLow_part1]
1 -103.546730 -30.653076 69.983971 0.001392 -24.998774 0.001392 128.682922
2 -103.546738 -30.653061 69.983971 0.001392 -24.998774 0.001392 128.682922
3 -103.546738 -30.653046 69.983971 0.001392 -24.998774 0.001392 128.682922
4 -103.546745 -30.653030 69.983971 0.001392 -24.998774 0.001392 128.682922
5 -103.546745 -30.653015 69.983971 0.001392 -24.998774 0.001392 128.682907
6 -103.546753 -30.653000 69.983971 0.001392 -24.998774 0.001392 128.682922
7 -105.638199 -30.653152 65.297699 0.001400 -23.925930 0.001400 127.917297
8 -111.151917 -30.653076 52.942665 0.001423 -21.091887 0.001423 126.875084
9 -118.947189 -30.653076 35.475471 0.001459 -17.089617 0.001459 127.853653
[middle_left_energyLow_part2]
1 -127.959595 -32.015839 48.459774 0.006909 70.438728 0.006909 140.524109
2 -127.959595 -32.015865 48.459774 0.006909 70.438728 0.006909 140.524109
3 -127.959579 -32.015888 48.459774 0.006909 70.438728 0.006909 140.524109
4 -127.959579 -32.015915 48.459774 0.006909 70.438728 0.006909 140.524109
5 -129.765442 -31.856459 43.025665 0.005992 67.409416 0.005992 140.374893
6 -134.526276 -31.436615 28.699341 0.004452 59.431629 0.004452 141.100082
7 -141.257141 -30.842896 8.444835 0.003286 48.147541 0.003286 144.831543
8 -148.972961 -30.162277 -14.773739 0.002567 35.218155 0.002567 152.712036
9 -156.688782 -29.481659 -37.992313 0.002107 22.288725 0.002107 163.902283
[middle_left_root]
1 -154.820602 -30.653000 11.900329 0.005422 -65.000610 179.994583 158.273941
2 -152.424469 -30.653076 9.381560 0.005334 -64.578835 179.994659 155.758926
3 -145.920685 -30.653000 2.545013 0.005109 -63.441578 179.994904 149.127213
4 -136.336121 -30.652847 -7.529907 0.004810 -61.757259 179.995178 139.942245
5 -124.697762 -30.652924 -19.763870 0.004494 -59.722286 179.995514 129.922058
6 -112.032501 -30.652962 -33.077126 0.004194 -57.499012 179.995819 120.768295
7 -99.367264 -30.653000 -46.390377 0.003934 -55.282391 179.996078 113.866264
8 -87.728889 -30.652924 -58.624416 0.003722 -53.237362 179.996277 109.876213
9 -78.144302 -30.652924 -68.699402 0.003565 -51.561710 179.996445 108.470009
[middle_right_energyLow_part1]
1 94.141312 -29.615326 69.983971 0.002184 -25.002171 179.997818 120.985168
2 94.141312 -29.615295 69.983971 0.002184 -25.002171 179.997818 120.985161
3 94.141319 -29.615265 69.983971 0.002184 -25.002171 179.997818 120.985153
4 94.141319 -29.615234 69.983971 0.002184 -25.002171 179.997818 120.985146
5 94.141327 -29.615204 69.983971 0.002184 -25.002171 179.997818 120.985146
6 94.141327 -29.615173 69.983971 0.002184 -25.002171 179.997818 120.985138
7 96.232719 -29.615326 65.297699 0.002153 -23.924271 179.997849 120.006638
8 101.746475 -29.615326 52.942665 0.002075 -21.095268 179.997925 118.458168
9 109.541771 -29.615173 35.475319 0.001975 -17.087971 179.998032 118.890518
[middle_top]
1 -3.220558 -56.650467 59.132381 0.000000 -0.000000 0.000000 81.952950
2 -3.220552 -56.650475 59.132393 0.000000 -0.000000 0.000000 81.952965
3 -3.220545 -56.650478 59.132408 0.000000 -0.000000 0.000000 81.952980
4 -3.220539 -56.650486 59.132420 0.000000 -0.000000 0.000000 81.952988
5 -3.220533 -56.650494 59.132435 0.000000 -0.000000 0.000000 81.953003
6 -3.220526 -56.650497 59.132446 0.000000 -0.000000 0.000000 81.953018
7 -3.220520 -56.650505 59.132458 0.000000 -0.000000 0.000000 81.953026
8 -3.220514 -56.650513 59.132473 0.000000 -0.000000 0.000000 81.953049
9 -3.220507 -56.650517 59.132484 0.000000 -0.000000 0.000000 81.953056
[barrel1_top_root]
1 0.000081 96.240509 0.000132 0.000000 -0.000000 0.000000 96.240509
2 0.000081 96.240509 0.000132 0.000000 -0.000000 0.000000 96.240509
3 0.000081 96.240509 0.000132 0.000000 -0.000000 0.000000 96.240509
4 0.000081 96.240509 0.000132 0.000000 -0.000000 0.000000 96.240509
5 0.000081 96.240509 0.000132 0.000000 -0.000000 0.000000 96.240509
6 0.000081 96.240509 0.000132 0.000000 -0.000000 0.000000 96.240509
7 0.000081 96.240509 0.000132 0.000000 -0.000000 0.000000 96.240509
8 0.000081 96.240509 0.000132 0.000000 -0.000000 0.000000 96.240509
9 0.000081 96.240509 0.000132 0.000000 -0.000000 0.000000 96.240509
[barrel2_top_root]
1 -0.000009 124.139923 0.000132 0.001231 -54.999702 0.001231 124.139923
2 -0.000009 124.139923 0.000132 0.001223 -57.173931 0.001223 124.139923
3 -0.000009 124.139923 0.000132 0.001211 -61.963352 0.001211 124.139923
4 -0.000009 124.139923 0.000132 0.001198 -66.752754 0.001198 124.139923
5 -0.000009 124.139923 0.000132 0.001194 -68.928169 0.001194 124.139923
6 -0.000009 124.139923 0.000132 0.001197 -67.399498 0.001197 124.139923
7 -0.000009 124.139923 0.000132 0.001200 -65.860725 0.001200 124.139923
8 -0.000009 124.139923 0.000132 0.001198 -66.634346 0.001198 124.139923
9 -0.000009 124.139923 0.000132 0.001194 -68.928154 0.001194 124.139923
[barrel3_top_root]
1 0.000101 69.591400 0.000123 0.003903 54.997871 0.003903 69.591400
2 0.000101 69.591400 0.000123 0.003903 54.997871 0.003903 69.591400
3 0.000101 69.591400 0.000123 0.003903 54.997871 0.003903 69.591400
4 0.000101 69.591400 0.000123 0.003903 54.997871 0.003903 69.591400
5 0.000101 69.591400 0.000123 0.003903 54.997871 0.003903 69.591400
6 0.000101 69.591400 0.000123 0.003903 54.997871 0.003903 69.591400
7 0.000101 69.591400 0.000123 0.003903 54.997871 0.003903 69.591400
8 0.000101 69.591400 0.000123 0.003903 54.997871 0.003903 69.591400
9 0.000101 69.591400 0.000123 0.004088 56.632065 0.004088 69.591400
[barrel1_top_back]
1 -3.343935 98.041893 186.671844 0.000000 -0.000000 0.000000 210.878571
2 -3.343935 98.041893 186.671844 0.000000 -0.000000 0.000000 210.878571
3 -3.343935 98.041893 186.671844 0.000000 -0.000000 0.000000 210.878571
4 -3.343935 98.041893 186.671844 0.000000 -0.000000 0.000000 210.878571
5 -3.343935 98.041893 186.671844 0.000000 -0.000000 0.000000 210.878571
6 -3.343935 98.041893 186.671844 0.000000 -0.000000 0.000000 210.878571
7 -3.343935 98.041893 186.671844 0.000000 -0.000000 0.000000 210.878571
8 -3.343935 98.041893 186.671844 0.000000 -0.000000 0.000000 210.878571
9 -3.343935 98.041893 186.671844 0.000000 -0.000000 0.000000 210.878571
[barrel2_top_back]
1 3.886122 70.142326 185.630630 -0.000096 -0.000041 0.000007 198.478668
2 3.886122 70.142326 185.630630 -0.000096 -0.000041 0.000007 198.478668
3 3.886122 70.142326 185.630630 -0.000096 -0.000041 0.000007 198.478668
4 3.886122 70.142326 185.630630 -0.000096 -0.000041 0.000007 198.478668
5 3.886122 70.142326 185.630630 -0.000096 -0.000041 0.000007 198.478668
6 3.886122 70.142326 185.630630 -0.000096 -0.000041 0.000007 198.478668
7 3.886122 70.142326 185.630630 -0.000096 -0.000041 0.000007 198.478668
8 3.886122 70.142326 185.630630 -0.000096 -0.000041 0.000007 198.478668
9 3.886122 70.142326 185.630630 -0.000096 -0.000041 0.000007 198.478668
[barrel3_top_back]
1 -0.050068 125.495209 180.152344 -0.000049 0.000003 0.000007 219.553894
2 -0.050068 125.495209 180.152344 -0.000049 0.000003 0.000007 219.553894
3 -0.050068 125.495209 180.152344 -0.000049 0.000003 0.000007 219.553894
4 -0.050068 125.495209 180.152344 -0.000049 0.000003 0.000007 219.553894
5 -0.050068 125.495209 180.152344 -0.000049 0.000003 0.000007 219.553894
6 -0.050068 125.495209 180.152344 -0.000049 0.000003 0.000007 219.553894
7 -0.050068 125.495209 180.152344 -0.000049 0.000003 0.000007 219.553894
8 -0.050068 125.495209 180.152344 -0.000049 0.000003 0.000007 219.553894
9 -0.050068 125.495209 180.152344 -0.000049 0.000003 0.000007 219.553894
